<svg width="52" height="9" viewBox="0 0 52 9" fill="none" xmlns="http://www.w3.org/2000/svg">
<path d="M5.26729 0.173834C5.30445 0.10127 5.40815 0.10127 5.44531 0.173834L6.67172 2.56898C6.68624 2.59735 6.71342 2.61709 6.74489 2.62214L9.40178 3.04838C9.48228 3.06129 9.51433 3.15993 9.4568 3.21769L7.55786 5.12421C7.53537 5.14679 7.52499 5.17874 7.52991 5.21023L7.94556 7.8688C7.95815 7.94935 7.87425 8.01031 7.80154 7.97344L5.40152 6.75659C5.3731 6.74218 5.3395 6.74218 5.31108 6.75659L2.91107 7.97344C2.83835 8.01031 2.75445 7.94935 2.76704 7.8688L3.18269 5.21023C3.18761 5.17874 3.17723 5.14679 3.15474 5.12421L1.25581 3.21769C1.19827 3.15993 1.23032 3.06129 1.31082 3.04838L3.96771 2.62214C3.99918 2.61709 4.02636 2.59735 4.04088 2.56898L5.26729 0.173834Z" fill="#E9A426"/>
<path d="M15.6585 0.173834C15.6956 0.10127 15.7993 0.10127 15.8365 0.173834L17.0629 2.56898C17.0774 2.59735 17.1046 2.61709 17.1361 2.62214L19.793 3.04838C19.8735 3.06129 19.9055 3.15993 19.848 3.21769L17.949 5.12421C17.9266 5.14679 17.9162 5.17874 17.9211 5.21023L18.3367 7.8688C18.3493 7.94935 18.2654 8.01031 18.1927 7.97344L15.7927 6.75659C15.7643 6.74218 15.7307 6.74218 15.7023 6.75659L13.3023 7.97344C13.2295 8.01031 13.1456 7.94935 13.1582 7.8688L13.5739 5.21023C13.5788 5.17874 13.5684 5.14679 13.5459 5.12421L11.647 3.21769C11.5895 3.15993 11.6215 3.06129 11.702 3.04838L14.3589 2.62214C14.3904 2.61709 14.4175 2.59735 14.4321 2.56898L15.6585 0.173834Z" fill="#E9A426"/>
<path d="M25.9426 0.173834C25.9797 0.10127 26.0834 0.10127 26.1206 0.173834L27.347 2.56898C27.3615 2.59735 27.3887 2.61709 27.4202 2.62214L30.077 3.04838C30.1575 3.06129 30.1896 3.15993 30.1321 3.21769L28.2331 5.12421C28.2106 5.14679 28.2003 5.17874 28.2052 5.21023L28.6208 7.8688C28.6334 7.94935 28.5495 8.01031 28.4768 7.97344L26.0768 6.75659C26.0484 6.74218 26.0148 6.74218 25.9863 6.75659L23.5863 7.97344C23.5136 8.01031 23.4297 7.94935 23.4423 7.8688L23.858 5.21023C23.8629 5.17874 23.8525 5.14679 23.83 5.12421L21.9311 3.21769C21.8735 3.15993 21.9056 3.06129 21.9861 3.04838L24.643 2.62214C24.6744 2.61709 24.7016 2.59735 24.7161 2.56898L25.9426 0.173834Z" fill="#E9A426"/>
<path d="M36.2266 0.173834C36.2638 0.10127 36.3675 0.10127 36.4046 0.173834L37.631 2.56898C37.6456 2.59735 37.6727 2.61709 37.7042 2.62214L40.3611 3.04838C40.4416 3.06129 40.4736 3.15993 40.4161 3.21769L38.5172 5.12421C38.4947 5.14679 38.4843 5.17874 38.4892 5.21023L38.9049 7.8688C38.9175 7.94935 38.8336 8.01031 38.7609 7.97344L36.3608 6.75659C36.3324 6.74218 36.2988 6.74218 36.2704 6.75659L33.8704 7.97344C33.7977 8.01031 33.7138 7.94935 33.7264 7.8688L34.142 5.21023C34.1469 5.17874 34.1366 5.14679 34.1141 5.12421L32.2151 3.21769C32.1576 3.15993 32.1896 3.06129 32.2701 3.04838L34.927 2.62214C34.9585 2.61709 34.9857 2.59735 35.0002 2.56898L36.2266 0.173834Z" fill="#E9A426"/>
<path d="M46.5107 0.173834C46.5478 0.10127 46.6515 0.10127 46.6887 0.173834L47.9151 2.56898C47.9296 2.59735 47.9568 2.61709 47.9883 2.62214L50.6452 3.04838C50.7257 3.06129 50.7577 3.15993 50.7002 3.21769L48.8013 5.12421C48.7788 5.14679 48.7684 5.17874 48.7733 5.21023L49.189 7.8688C49.2015 7.94935 49.1176 8.01031 49.0449 7.97344L46.6449 6.75659C46.6165 6.74218 46.5829 6.74218 46.5545 6.75659L44.1545 7.97344C44.0817 8.01031 43.9978 7.94935 44.0104 7.8688L44.4261 5.21023C44.431 5.17874 44.4206 5.14679 44.3981 5.12421L42.4992 3.21769C42.4417 3.15993 42.4737 3.06129 42.5542 3.04838L45.2111 2.62214C45.2426 2.61709 45.2698 2.59735 45.2843 2.56898L46.5107 0.173834Z" fill="#CACDD8"/>
</svg>
